<svg id="Layer_1" viewBox="0 0 64 64" xmlns="http://www.w3.org/2000/svg"><style>.st0{fill:#333;}</style><g id="Icon-Trash"><path class="st0" id="Fill-6" d="M24.5 22.9h3v24h-3z"/><path class="st0" id="Fill-7" d="M30.5 22.9h3v24h-3z"/><path class="st0" id="Fill-8" d="M36.5 22.9h3v24h-3z"/><path class="st0" id="Fill-9" d="M12.5 13.9h39v3h-39z"/><path class="st0" d="M39.4 15.4h-2.8v-3c0-.9-.7-1.6-1.6-1.6h-6c-.9 0-1.6.7-1.6 1.6v3h-2.8v-3c0-2.4 2-4.4 4.4-4.4h6c2.4 0 4.4 2 4.4 4.4v3" id="Fill-10"/><path class="st0" d="M41 55.9H23c-2.4 0-4.5-2-4.7-4.4l-2.8-36 3-.2 2.8 36c.1.9.9 1.6 1.7 1.6h18c.9 0 1.7-.8 1.7-1.6l2.8-36 3 .2-2.8 36c-.2 2.5-2.3 4.4-4.7 4.4" id="Fill-11"/></g></svg>
